<svg xmlns="http://www.w3.org/2000/svg" xmlns:xlink="http://www.w3.org/1999/xlink" width="793" zoomAndPan="magnify" viewBox="0 0 595.5 842.249979" height="1122" preserveAspectRatio="xMidYMid meet" version="1.0"><defs><clipPath id="953c87fc89"><path d="M 257 301.621094 L 337 301.621094 L 337 539.160156 L 257 539.160156 Z M 257 301.621094 " clip-rule="nonzero"/></clipPath><clipPath id="a8eb269efc"><path d="M 336 308 L 415.976562 308 L 415.976562 533 L 336 533 Z M 336 308 " clip-rule="nonzero"/></clipPath><clipPath id="e14afa78de"><path d="M 178.4375 308 L 258 308 L 258 533 L 178.4375 533 Z M 178.4375 308 " clip-rule="nonzero"/></clipPath></defs><g clip-path="url(#953c87fc89)"><path fill="#ededed" d="M 336.808594 308.378906 L 336.808594 532.402344 C 324.429688 536.789062 311.113281 539.160156 297.207031 539.160156 C 283.304688 539.160156 269.984375 536.789062 257.609375 532.402344 L 257.609375 308.378906 C 270.015625 303.992188 283.335938 301.621094 297.207031 301.621094 C 311.078125 301.621094 324.429688 303.992188 336.808594 308.378906 Z M 336.808594 308.378906 " fill-opacity="1" fill-rule="nonzero"/></g><g clip-path="url(#a8eb269efc)"><path fill="#f4263f" d="M 415.976562 420.390625 C 415.976562 428.511719 415.164062 436.472656 413.605469 444.136719 C 412.5 449.5625 411.039062 454.859375 409.21875 459.957031 C 397.296875 493.710938 370.5625 520.449219 336.808594 532.371094 L 336.808594 308.378906 C 370.5625 320.300781 397.296875 347.070312 409.21875 380.789062 C 411.039062 385.921875 412.5 391.21875 413.605469 396.609375 C 415.164062 404.308594 415.976562 412.269531 415.976562 420.390625 Z M 415.976562 420.390625 " fill-opacity="1" fill-rule="nonzero"/></g><g clip-path="url(#e14afa78de)"><path fill="#001aa0" d="M 257.609375 308.378906 L 257.609375 532.402344 C 223.886719 520.480469 197.117188 493.742188 185.195312 459.992188 C 183.375 454.859375 181.914062 449.5625 180.808594 444.171875 C 179.25 436.472656 178.4375 428.542969 178.4375 420.390625 C 178.4375 412.269531 179.25 404.308594 180.808594 396.644531 C 181.914062 391.21875 183.375 385.921875 185.195312 380.824219 C 197.117188 347.070312 223.886719 320.300781 257.609375 308.378906 Z M 257.609375 308.378906 " fill-opacity="1" fill-rule="nonzero"/></g></svg>