<svg xmlns="http://www.w3.org/2000/svg" xmlns:xlink="http://www.w3.org/1999/xlink" width="793" zoomAndPan="magnify" viewBox="0 0 595.5 842.249979" height="1122" preserveAspectRatio="xMidYMid meet" version="1.0"><defs><clipPath id="1e82bffc77"><path d="M 137 370 L 458.394531 370 L 458.394531 524.359375 L 137 524.359375 Z M 137 370 " clip-rule="nonzero"/></clipPath><clipPath id="79a8119832"><path d="M 385 316.792969 L 390 316.792969 L 390 391 L 385 391 Z M 385 316.792969 " clip-rule="nonzero"/></clipPath><clipPath id="e5744ed1af"><path d="M 219 316.792969 L 224 316.792969 L 224 410 L 219 410 Z M 219 316.792969 " clip-rule="nonzero"/></clipPath></defs><g clip-path="url(#1e82bffc77)"><path fill="#100f0d" d="M 458.160156 385.984375 C 455.589844 381.066406 451.5625 377.046875 446.175781 374.023438 C 441.886719 371.613281 437.023438 370.398438 431.71875 370.398438 C 430.210938 370.398438 428.640625 370.496094 427.0625 370.695312 C 418.753906 371.730469 411.691406 374.515625 405.984375 378.972656 L 406.4375 374.113281 L 375.292969 378.007812 L 374.464844 386.722656 L 369.222656 378.769531 L 350.605469 381.097656 L 344.21875 381.898438 L 342.523438 382.105469 L 327.527344 383.984375 L 291.941406 388.441406 L 288.085938 397.394531 L 285.84375 389.203125 L 252.445312 393.382812 L 251.390625 404.84375 C 250.132812 403.652344 248.757812 402.550781 247.261719 401.558594 C 241.628906 397.832031 235.15625 395.9375 228.035156 395.9375 C 226.28125 395.9375 224.464844 396.054688 222.644531 396.285156 C 212.023438 397.609375 203.445312 402.289062 197.136719 410.171875 C 197.136719 410.179688 197.136719 410.179688 197.128906 410.1875 C 195.988281 409.164062 194.75 408.207031 193.425781 407.304688 C 190.484375 405.304688 186.957031 403.886719 182.941406 403.089844 C 180.738281 402.664062 178.414062 402.441406 176.042969 402.441406 C 174.332031 402.441406 172.554688 402.550781 170.753906 402.78125 C 160.308594 404.089844 151.785156 408.59375 145.417969 416.175781 C 138.886719 423.933594 136.261719 433.28125 137.59375 443.957031 C 138.738281 453.085938 143.28125 460.4375 150.730469 465.226562 C 156.390625 468.875 162.824219 470.722656 169.847656 470.722656 C 171.59375 470.722656 173.394531 470.605469 175.210938 470.375 C 180.332031 469.738281 185.363281 467.988281 190.152344 465.171875 C 193.855469 463 197.019531 460.089844 199.628906 456.503906 C 200.46875 457.210938 201.351562 457.875 202.285156 458.503906 C 197.464844 460.253906 193.492188 463 190.445312 466.703125 C 185.765625 472.398438 183.746094 479.027344 184.601562 485.863281 C 185.0625 489.511719 186.464844 492.828125 188.699219 495.578125 L 178.953125 510.765625 L 183.78125 515.277344 C 187.613281 518.855469 192.554688 521.433594 198.46875 522.949219 C 202.078125 523.867188 205.867188 524.335938 209.753906 524.335938 C 211.875 524.335938 214.0625 524.191406 216.257812 523.921875 C 224.503906 522.882812 231.085938 519.648438 235.808594 514.285156 C 236.957031 512.988281 237.941406 511.613281 238.78125 510.171875 C 239.6875 510.933594 240.628906 511.660156 241.644531 512.335938 C 247.285156 516.085938 253.769531 518 260.941406 518 C 262.691406 518 264.515625 517.878906 266.355469 517.648438 C 276.992188 516.316406 285.566406 511.621094 291.835938 503.699219 C 292.511719 502.851562 293.136719 501.976562 293.726562 501.097656 C 295.183594 502.605469 296.84375 503.976562 298.667969 505.195312 C 304.304688 508.949219 310.792969 510.859375 317.960938 510.859375 C 319.714844 510.859375 321.546875 510.742188 323.386719 510.511719 C 330.992188 509.558594 337.535156 506.878906 342.941406 502.53125 L 342.507812 507.210938 L 373.664062 503.308594 L 374.609375 493.070312 L 380.746094 502.421875 L 406.417969 499.207031 L 412.214844 436.621094 C 416.15625 438.070312 420.355469 438.816406 424.753906 438.816406 C 426.476562 438.816406 428.246094 438.699219 430.027344 438.476562 C 435.648438 437.777344 440.765625 435.96875 445.230469 433.113281 C 449.101562 430.640625 452.3125 427.523438 454.785156 423.820312 L 458.523438 386.679688 Z M 175.304688 439.339844 C 175.257812 439.476562 174.972656 439.871094 174.265625 440.394531 C 173.566406 440.917969 172.941406 441.21875 172.402344 441.285156 C 172.101562 441.324219 171.824219 441.339844 171.5625 441.339844 C 170.59375 441.339844 170.144531 441.085938 169.785156 440.816406 C 169.128906 440.300781 168.875 439.839844 168.765625 439 C 168.53125 437.128906 168.914062 435.597656 170.007812 434.035156 C 170.945312 432.695312 172.015625 432.0625 173.710938 431.855469 C 173.941406 431.824219 174.15625 431.808594 174.347656 431.808594 C 174.996094 431.808594 175.347656 431.964844 175.601562 432.109375 C 175.859375 432.269531 176.035156 432.402344 176.203125 432.917969 L 176.914062 435.117188 Z M 227.820312 432.703125 C 226.933594 433.980469 225.910156 434.589844 224.285156 434.789062 C 223.964844 434.828125 223.664062 434.851562 223.386719 434.851562 C 222.378906 434.851562 221.902344 434.597656 221.574219 434.34375 C 221.167969 434.042969 220.796875 433.675781 220.652344 432.503906 C 220.40625 430.558594 220.773438 429.011719 221.84375 427.472656 C 222.730469 426.1875 223.753906 425.585938 225.378906 425.382812 C 225.691406 425.339844 225.992188 425.324219 226.269531 425.324219 C 227.277344 425.324219 227.757812 425.578125 228.09375 425.824219 C 228.488281 426.132812 228.871094 426.5 229.011719 427.671875 C 229.257812 429.609375 228.882812 431.164062 227.820312 432.703125 Z M 237.546875 462.578125 C 237.117188 462.285156 236.679688 462 236.234375 461.730469 C 237.449219 461.285156 238.632812 460.800781 239.773438 460.246094 C 239.003906 460.992188 238.257812 461.761719 237.546875 462.578125 Z M 267.085938 486.464844 C 266.195312 487.75 265.175781 488.351562 263.546875 488.558594 C 263.230469 488.597656 262.929688 488.613281 262.652344 488.613281 C 261.644531 488.613281 261.167969 488.359375 260.835938 488.105469 C 260.433594 487.804688 260.058594 487.4375 259.917969 486.265625 C 259.671875 484.328125 260.035156 482.773438 261.105469 481.238281 C 261.996094 479.960938 263.019531 479.347656 264.644531 479.152344 C 264.960938 479.109375 265.253906 479.085938 265.53125 479.085938 C 266.539062 479.085938 267.023438 479.347656 267.347656 479.597656 C 267.753906 479.898438 268.125 480.261719 268.277344 481.4375 C 268.523438 483.371094 268.148438 484.925781 267.085938 486.464844 Z M 293.429688 456.796875 C 292.742188 457.660156 292.097656 458.542969 291.503906 459.4375 C 290.097656 457.992188 288.523438 456.675781 286.777344 455.503906 L 295.507812 454.410156 C 294.796875 455.171875 294.097656 455.964844 293.429688 456.796875 Z M 324.105469 479.328125 C 323.21875 480.613281 322.195312 481.214844 320.570312 481.421875 C 320.253906 481.460938 319.953125 481.476562 319.675781 481.476562 C 318.675781 481.476562 318.199219 481.222656 317.859375 480.96875 C 317.453125 480.667969 317.082031 480.300781 316.9375 479.128906 C 316.695312 477.191406 317.066406 475.636719 318.128906 474.097656 C 319.019531 472.824219 320.039062 472.210938 321.667969 472.011719 C 321.984375 471.972656 322.285156 471.949219 322.554688 471.949219 C 323.5625 471.949219 324.046875 472.203125 324.378906 472.457031 C 324.78125 472.761719 325.15625 473.125 325.296875 474.300781 C 325.542969 476.234375 325.179688 477.789062 324.105469 479.328125 Z M 347.679688 451.464844 C 346.496094 450.347656 345.203125 449.308594 343.808594 448.363281 L 348.011719 447.84375 Z M 368.179688 437.578125 L 368.402344 435.167969 L 369.84375 437.367188 Z M 380.679688 444.621094 L 380.15625 443.8125 L 380.765625 443.742188 Z M 400.933594 433.480469 L 401.257812 429.988281 C 402.40625 431.066406 403.667969 432.058594 405.023438 432.964844 Z M 400.933594 433.480469 " fill-opacity="1" fill-rule="nonzero"/></g><path fill="#ffffff" d="M 174.226562 462.507812 C 166.933594 463.421875 160.53125 462.105469 155.019531 458.5625 C 149.511719 455.015625 146.328125 449.820312 145.46875 442.972656 C 144.414062 434.535156 146.421875 427.304688 151.488281 421.273438 C 156.554688 415.246094 163.308594 411.707031 171.742188 410.648438 C 175.21875 410.214844 178.4375 410.289062 181.410156 410.875 C 184.382812 411.460938 186.902344 412.457031 188.96875 413.863281 C 191.035156 415.265625 192.777344 416.8125 194.199219 418.5 C 195.621094 420.1875 196.761719 422.058594 197.625 424.121094 L 183.753906 430.46875 C 183.011719 428.191406 181.636719 426.460938 179.625 425.277344 C 177.609375 424.09375 175.3125 423.660156 172.734375 423.984375 C 168.8125 424.472656 165.742188 426.308594 163.519531 429.484375 C 161.292969 432.664062 160.421875 436.160156 160.898438 439.984375 C 161.265625 442.914062 162.609375 445.277344 164.925781 447.078125 C 167.242188 448.882812 170.0625 449.574219 173.390625 449.15625 C 175.324219 448.917969 177.203125 448.113281 179.023438 446.75 C 180.84375 445.390625 182.074219 443.863281 182.722656 442.167969 L 195.433594 448.289062 C 193.113281 452.710938 190.019531 456.0625 186.144531 458.335938 C 182.269531 460.605469 178.296875 462 174.226562 462.507812 Z M 174.226562 462.507812 " fill-opacity="1" fill-rule="nonzero"/><path fill="#ffffff" d="M 226.113281 456.015625 C 218.671875 456.945312 212.226562 455.597656 206.78125 451.96875 C 201.335938 448.339844 198.195312 443.175781 197.355469 436.476562 C 196.355469 428.484375 198.347656 421.367188 203.339844 415.125 C 208.332031 408.878906 215.09375 405.21875 223.628906 404.152344 C 231.023438 403.230469 237.441406 404.566406 242.882812 408.171875 C 248.324219 411.773438 251.460938 416.902344 252.292969 423.550781 C 253.300781 431.589844 251.320312 438.746094 246.359375 445.011719 C 241.398438 451.277344 234.648438 454.945312 226.113281 456.015625 Z M 225.273438 442.660156 C 229.144531 442.175781 232.167969 440.359375 234.34375 437.214844 C 236.523438 434.070312 237.367188 430.558594 236.882812 426.691406 C 236.496094 423.613281 235.152344 421.210938 232.84375 419.484375 C 230.535156 417.753906 227.71875 417.097656 224.394531 417.515625 C 220.523438 418 217.5 419.816406 215.320312 422.960938 C 213.144531 426.109375 212.300781 429.617188 212.785156 433.488281 C 213.167969 436.5625 214.515625 438.96875 216.824219 440.691406 C 219.132812 442.421875 221.949219 443.074219 225.273438 442.660156 Z M 225.273438 442.660156 " fill-opacity="1" fill-rule="nonzero"/><path fill="#ffffff" d="M 313.992188 444.105469 L 298.957031 445.988281 L 301.769531 415.3125 L 287.863281 447.375 L 281.164062 448.214844 L 272.886719 418.929688 L 270.074219 449.601562 L 255.035156 451.484375 L 259.761719 400.460938 L 280.011719 397.925781 L 286.417969 421.320312 L 297.429688 395.746094 L 318.722656 393.082031 Z M 313.992188 444.105469 " fill-opacity="1" fill-rule="nonzero"/><path fill="#ffffff" d="M 337.070312 441.214844 L 322.035156 443.097656 L 326.761719 392.074219 L 341.796875 390.191406 Z M 337.070312 441.214844 " fill-opacity="1" fill-rule="nonzero"/><path fill="#ffffff" d="M 392.902344 434.226562 L 378.460938 436.035156 L 362.582031 411.863281 L 360.148438 438.328125 L 345.109375 440.207031 L 349.839844 389.183594 L 365.320312 387.246094 L 380.253906 409.875 L 382.59375 385.085938 L 397.628906 383.203125 Z M 392.902344 434.226562 " fill-opacity="1" fill-rule="nonzero"/><path fill="#ffffff" d="M 429.042969 430.609375 C 421.898438 431.503906 415.535156 430.210938 409.957031 426.722656 C 404.382812 423.238281 401.15625 418.023438 400.285156 411.074219 C 399.253906 402.835938 401.304688 395.648438 406.433594 389.511719 C 411.5625 383.375 418.769531 379.726562 428.050781 378.566406 C 433.507812 377.882812 438.257812 378.675781 442.296875 380.941406 C 446.335938 383.207031 449.28125 386.113281 451.140625 389.664062 L 438 397.054688 C 437.402344 395.515625 436.097656 394.230469 434.078125 393.199219 C 432.058594 392.164062 429.882812 391.796875 427.550781 392.085938 C 423.777344 392.558594 420.738281 394.351562 418.433594 397.464844 C 416.125 400.574219 415.21875 404.117188 415.71875 408.085938 C 416.070312 410.914062 417.382812 413.257812 419.660156 415.117188 C 421.933594 416.976562 424.78125 417.6875 428.207031 417.257812 C 430.6875 416.949219 432.851562 415.921875 434.703125 414.179688 L 434.839844 412.269531 L 425.609375 413.425781 L 426.949219 399.953125 L 451.144531 396.925781 L 449.15625 417.890625 C 447.167969 421.363281 444.4375 424.214844 440.964844 426.4375 C 437.484375 428.660156 433.511719 430.050781 429.042969 430.609375 Z M 429.042969 430.609375 " fill-opacity="1" fill-rule="nonzero"/><path fill="#ffffff" d="M 215.277344 516.050781 C 210.019531 516.707031 205.070312 516.445312 200.4375 515.261719 C 195.800781 514.078125 192.058594 512.152344 189.203125 509.484375 L 196.796875 497.648438 C 198.8125 499.664062 201.496094 501.179688 204.851562 502.195312 C 208.203125 503.210938 211.542969 503.511719 214.867188 503.097656 C 216.160156 502.933594 217.109375 502.589844 217.726562 502.058594 C 218.339844 501.527344 218.613281 500.992188 218.542969 500.441406 C 218.449219 499.699219 217.546875 499.105469 215.828125 498.664062 C 214.109375 498.226562 212.035156 497.777344 209.609375 497.328125 C 207.183594 496.875 204.753906 496.257812 202.308594 495.480469 C 199.867188 494.703125 197.703125 493.410156 195.8125 491.605469 C 193.925781 489.800781 192.8125 487.558594 192.476562 484.878906 C 191.886719 480.164062 193.253906 475.78125 196.578125 471.738281 C 199.902344 467.691406 204.890625 465.253906 211.542969 464.421875 C 215.660156 463.90625 219.71875 464.117188 223.71875 465.050781 C 227.714844 465.988281 231.222656 467.628906 234.238281 469.972656 L 226.535156 481.519531 C 224.359375 479.828125 221.800781 478.636719 218.867188 477.945312 C 215.929688 477.253906 213.199219 477.066406 210.667969 477.382812 C 209.722656 477.5 209.003906 477.78125 208.503906 478.21875 C 208.003906 478.660156 207.792969 479.179688 207.867188 479.773438 C 207.953125 480.46875 208.859375 481.039062 210.574219 481.476562 C 212.292969 481.917969 214.367188 482.375 216.796875 482.851562 C 219.226562 483.328125 221.671875 483.953125 224.140625 484.730469 C 226.605469 485.503906 228.785156 486.792969 230.671875 488.601562 C 232.5625 490.40625 233.675781 492.648438 234.011719 495.328125 C 234.667969 500.589844 233.285156 505.160156 229.867188 509.039062 C 226.445312 512.925781 221.582031 515.261719 215.277344 516.050781 Z M 215.277344 516.050781 " fill-opacity="1" fill-rule="nonzero"/><path fill="#ffffff" d="M 265.378906 509.777344 C 257.933594 510.710938 251.488281 509.363281 246.046875 505.734375 C 240.601562 502.105469 237.457031 496.941406 236.621094 490.238281 C 235.621094 482.25 237.613281 475.132812 242.605469 468.886719 C 247.59375 462.644531 254.359375 458.984375 262.894531 457.917969 C 270.289062 456.992188 276.707031 458.332031 282.148438 461.933594 C 287.589844 465.539062 290.726562 470.664062 291.558594 477.316406 C 292.5625 485.355469 290.585938 492.507812 285.625 498.777344 C 280.664062 505.042969 273.914062 508.710938 265.378906 509.777344 Z M 264.539062 496.425781 C 268.410156 495.941406 271.433594 494.125 273.609375 490.980469 C 275.789062 487.835938 276.632812 484.328125 276.148438 480.457031 C 275.761719 477.378906 274.414062 474.976562 272.109375 473.25 C 269.800781 471.519531 266.984375 470.863281 263.660156 471.28125 C 259.789062 471.765625 256.761719 473.582031 254.585938 476.726562 C 252.410156 479.875 251.5625 483.382812 252.046875 487.253906 C 252.433594 490.328125 253.777344 492.734375 256.089844 494.457031 C 258.394531 496.1875 261.214844 496.839844 264.539062 496.425781 Z M 264.539062 496.425781 " fill-opacity="1" fill-rule="nonzero"/><path fill="#ffffff" d="M 322.402344 502.640625 C 314.957031 503.574219 308.511719 502.222656 303.070312 498.59375 C 297.625 494.964844 294.480469 489.804688 293.644531 483.101562 C 292.644531 475.113281 294.636719 467.996094 299.628906 461.75 C 304.617188 455.503906 311.382812 451.847656 319.917969 450.78125 C 327.3125 449.855469 333.730469 451.195312 339.171875 454.796875 C 344.613281 458.402344 347.75 463.527344 348.582031 470.179688 C 349.585938 478.21875 347.609375 485.371094 342.648438 491.636719 C 337.6875 497.90625 330.9375 501.570312 322.402344 502.640625 Z M 321.5625 489.289062 C 325.433594 488.804688 328.457031 486.988281 330.632812 483.84375 C 332.8125 480.699219 333.65625 477.1875 333.171875 473.320312 C 332.785156 470.242188 331.4375 467.839844 329.132812 466.109375 C 326.824219 464.382812 324.007812 463.726562 320.683594 464.144531 C 316.8125 464.628906 313.785156 466.445312 311.609375 469.589844 C 309.433594 472.738281 308.585938 476.246094 309.070312 480.113281 C 309.457031 483.191406 310.800781 485.59375 313.113281 487.320312 C 315.417969 489.046875 318.234375 489.703125 321.5625 489.289062 Z M 321.5625 489.289062 " fill-opacity="1" fill-rule="nonzero"/><path fill="#ffffff" d="M 399.113281 492.128906 L 384.671875 493.9375 L 368.792969 469.765625 L 366.359375 496.230469 L 351.324219 498.113281 L 356.050781 447.089844 L 371.535156 445.148438 L 386.464844 467.777344 L 388.804688 442.988281 L 403.84375 441.105469 Z M 399.113281 492.128906 " fill-opacity="1" fill-rule="nonzero"/><path fill="#100f0d" d="M 225.769531 411.511719 C 225.769531 411.800781 225.742188 412.085938 225.683594 412.367188 C 225.628906 412.652344 225.546875 412.925781 225.433594 413.191406 C 225.324219 413.457031 225.191406 413.710938 225.03125 413.949219 C 224.871094 414.191406 224.6875 414.410156 224.484375 414.613281 C 224.28125 414.820312 224.058594 415 223.820312 415.160156 C 223.578125 415.320312 223.328125 415.457031 223.058594 415.566406 C 222.792969 415.675781 222.519531 415.761719 222.238281 415.816406 C 221.953125 415.871094 221.667969 415.898438 221.382812 415.898438 C 221.09375 415.898438 220.808594 415.871094 220.523438 415.816406 C 220.242188 415.761719 219.96875 415.675781 219.703125 415.566406 C 219.4375 415.457031 219.183594 415.320312 218.945312 415.160156 C 218.703125 415 218.480469 414.820312 218.277344 414.613281 C 218.074219 414.410156 217.894531 414.191406 217.734375 413.949219 C 217.574219 413.710938 217.4375 413.457031 217.328125 413.191406 C 217.21875 412.925781 217.132812 412.652344 217.078125 412.367188 C 217.023438 412.085938 216.992188 411.800781 216.992188 411.511719 C 216.992188 411.222656 217.023438 410.9375 217.078125 410.65625 C 217.132812 410.375 217.21875 410.097656 217.328125 409.832031 C 217.4375 409.566406 217.574219 409.3125 217.734375 409.074219 C 217.894531 408.835938 218.074219 408.613281 218.277344 408.410156 C 218.480469 408.207031 218.703125 408.023438 218.945312 407.863281 C 219.183594 407.703125 219.4375 407.570312 219.703125 407.457031 C 219.96875 407.347656 220.242188 407.265625 220.523438 407.207031 C 220.808594 407.152344 221.09375 407.125 221.382812 407.125 C 221.667969 407.125 221.953125 407.152344 222.238281 407.207031 C 222.519531 407.265625 222.792969 407.347656 223.058594 407.457031 C 223.328125 407.570312 223.578125 407.703125 223.820312 407.863281 C 224.058594 408.023438 224.28125 408.207031 224.484375 408.410156 C 224.6875 408.613281 224.871094 408.835938 225.03125 409.074219 C 225.191406 409.3125 225.324219 409.566406 225.433594 409.832031 C 225.546875 410.097656 225.628906 410.375 225.683594 410.65625 C 225.742188 410.9375 225.769531 411.222656 225.769531 411.511719 Z M 225.769531 411.511719 " fill-opacity="1" fill-rule="nonzero"/><path fill="#100f0d" d="M 391.671875 390.191406 C 391.671875 390.480469 391.644531 390.765625 391.585938 391.046875 C 391.53125 391.332031 391.449219 391.605469 391.335938 391.871094 C 391.226562 392.136719 391.09375 392.390625 390.933594 392.628906 C 390.773438 392.871094 390.589844 393.089844 390.386719 393.296875 C 390.183594 393.5 389.960938 393.679688 389.722656 393.839844 C 389.480469 394 389.230469 394.136719 388.960938 394.246094 C 388.695312 394.355469 388.421875 394.441406 388.140625 394.496094 C 387.855469 394.550781 387.570312 394.582031 387.285156 394.582031 C 386.996094 394.582031 386.710938 394.550781 386.425781 394.496094 C 386.144531 394.441406 385.871094 394.355469 385.605469 394.246094 C 385.339844 394.136719 385.085938 394 384.84375 393.839844 C 384.605469 393.679688 384.382812 393.5 384.179688 393.296875 C 383.976562 393.089844 383.796875 392.871094 383.636719 392.628906 C 383.476562 392.390625 383.339844 392.136719 383.230469 391.871094 C 383.121094 391.605469 383.035156 391.332031 382.980469 391.046875 C 382.921875 390.765625 382.894531 390.480469 382.894531 390.191406 C 382.894531 389.90625 382.921875 389.621094 382.980469 389.335938 C 383.035156 389.054688 383.121094 388.78125 383.230469 388.511719 C 383.339844 388.246094 383.476562 387.996094 383.636719 387.753906 C 383.796875 387.515625 383.976562 387.292969 384.179688 387.089844 C 384.382812 386.886719 384.605469 386.703125 384.84375 386.542969 C 385.085938 386.382812 385.339844 386.25 385.605469 386.140625 C 385.871094 386.027344 386.144531 385.945312 386.425781 385.890625 C 386.710938 385.832031 386.996094 385.804688 387.285156 385.804688 C 387.570312 385.804688 387.855469 385.832031 388.140625 385.890625 C 388.421875 385.945312 388.695312 386.027344 388.960938 386.140625 C 389.230469 386.25 389.480469 386.382812 389.722656 386.542969 C 389.960938 386.703125 390.183594 386.886719 390.386719 387.089844 C 390.589844 387.292969 390.773438 387.515625 390.933594 387.753906 C 391.09375 387.996094 391.226562 388.246094 391.335938 388.511719 C 391.449219 388.78125 391.53125 389.054688 391.585938 389.335938 C 391.644531 389.621094 391.671875 389.90625 391.671875 390.191406 Z M 391.671875 390.191406 " fill-opacity="1" fill-rule="nonzero"/><g clip-path="url(#79a8119832)"><path fill="#100f0d" d="M 385.300781 316.789062 L 389.265625 316.789062 L 389.265625 390.191406 L 385.300781 390.191406 Z M 385.300781 316.789062 " fill-opacity="1" fill-rule="nonzero"/></g><g clip-path="url(#e5744ed1af)"><path fill="#100f0d" d="M 219.515625 316.789062 L 223.484375 316.789062 L 223.484375 409.734375 L 219.515625 409.734375 Z M 219.515625 316.789062 " fill-opacity="1" fill-rule="nonzero"/></g></svg>