<svg xmlns="http://www.w3.org/2000/svg" xmlns:xlink="http://www.w3.org/1999/xlink" width="793" zoomAndPan="magnify" viewBox="0 0 594.95996 842.24997" height="1122" preserveAspectRatio="xMidYMid meet" version="1.0"><defs><clipPath id="234c492b57"><path d="M 178.667969 305.339844 L 409 305.339844 L 409 536.132812 L 178.667969 536.132812 Z M 178.667969 305.339844 " clip-rule="nonzero"/></clipPath><clipPath id="166b01bb67"><path d="M 367.875 463 L 416.148438 463 L 416.148438 511.667969 L 367.875 511.667969 Z M 367.875 463 " clip-rule="nonzero"/></clipPath></defs><path fill="#000000" d="M 189.804688 445.136719 L 398.0625 445.136719 C 399.277344 438.023438 401.265625 425.445312 401.265625 420.734375 C 401.265625 416.027344 399.277344 403.445312 398.0625 396.339844 L 189.804688 396.339844 L 186.777344 420.734375 Z M 404.160156 452.4375 L 183.367188 452.4375 L 179.4375 420.734375 L 183.367188 389.03125 L 404.160156 389.03125 L 404.703125 392.035156 C 404.859375 392.910156 408.546875 413.476562 408.546875 420.734375 C 408.546875 427.992188 404.859375 448.5625 404.703125 449.433594 L 404.160156 452.4375 " fill-opacity="1" fill-rule="nonzero"/><path fill="#000000" d="M 272.738281 406.644531 L 264.59375 437.4375 L 256.679688 437.4375 L 252.382812 420.449219 L 248.324219 437.4375 L 240.070312 437.4375 L 231.914062 406.644531 L 240.78125 406.644531 L 245.078125 424.367188 L 249.265625 406.644531 L 256.664062 406.644531 L 261.222656 424.402344 L 265.523438 406.644531 L 272.738281 406.644531 " fill-opacity="1" fill-rule="nonzero"/><path fill="#000000" d="M 314.191406 406.644531 L 306.046875 437.4375 L 298.128906 437.4375 L 293.835938 420.449219 L 289.777344 437.4375 L 281.523438 437.4375 L 273.367188 406.644531 L 282.234375 406.644531 L 286.53125 424.367188 L 290.71875 406.644531 L 298.117188 406.644531 L 302.675781 424.402344 L 306.976562 406.644531 L 314.191406 406.644531 " fill-opacity="1" fill-rule="nonzero"/><path fill="#000000" d="M 355.640625 406.644531 L 347.5 437.4375 L 339.582031 437.4375 L 335.289062 420.449219 L 331.230469 437.4375 L 322.976562 437.4375 L 314.820312 406.644531 L 323.6875 406.644531 L 327.980469 424.367188 L 332.171875 406.644531 L 339.570312 406.644531 L 344.128906 424.402344 L 348.429688 406.644531 L 355.640625 406.644531 " fill-opacity="1" fill-rule="nonzero"/><path fill="#000000" d="M 214.707031 479.894531 C 219.445312 477.335938 229.828125 472.339844 244.988281 468.382812 C 243.441406 462.128906 242.222656 455.5625 241.316406 448.785156 L 199.152344 448.785156 C 202.5 460.132812 207.804688 470.640625 214.707031 479.894531 " fill-opacity="1" fill-rule="nonzero"/><path fill="#000000" d="M 296.84375 370.960938 L 296.84375 392.683594 L 336.15625 392.683594 C 334.964844 383.898438 333.246094 375.738281 331.089844 368.351562 C 318.726562 369.886719 307.273438 370.683594 296.84375 370.960938 " fill-opacity="1" fill-rule="nonzero"/><path fill="#000000" d="M 287.992188 371.082031 C 275.660156 371.082031 264.988281 370.378906 256.191406 369.425781 C 255.816406 369.382812 255.449219 369.339844 255.078125 369.300781 C 253.046875 376.4375 251.421875 384.269531 250.28125 392.683594 L 289.601562 392.683594 L 289.601562 371.078125 C 289.0625 371.078125 288.523438 371.082031 287.992188 371.082031 " fill-opacity="1" fill-rule="nonzero"/><path fill="#000000" d="M 215.03125 361.148438 C 207.976562 370.507812 202.554688 381.164062 199.152344 392.683594 L 241.3125 392.683594 C 242.460938 384.105469 244.121094 375.871094 246.289062 368.164062 C 230.285156 365.816406 219.660156 362.6875 215.03125 361.148438 " fill-opacity="1" fill-rule="nonzero"/><path fill="#000000" d="M 253.558594 466.382812 C 254.835938 466.121094 256.132812 465.863281 257.464844 465.621094 C 267.945312 463.703125 278.699219 462.730469 289.601562 462.703125 L 289.601562 448.785156 L 250.285156 448.785156 C 251.125 454.980469 252.21875 460.871094 253.558594 466.382812 " fill-opacity="1" fill-rule="nonzero"/><path fill="#000000" d="M 254.203125 494.609375 C 251.382812 488.734375 248.941406 482.289062 246.898438 475.402344 C 233.660156 478.867188 224.199219 483.175781 219.355469 485.664062 C 232.382812 500.664062 249.832031 511.699219 269.640625 516.714844 C 263.886719 511.324219 258.664062 503.898438 254.203125 494.609375 " fill-opacity="1" fill-rule="nonzero"/><path fill="#000000" d="M 332.242188 494.609375 C 327.675781 504.117188 322.3125 511.671875 316.398438 517.085938 C 336.660156 512.300781 354.53125 501.234375 367.851562 486.058594 C 357.929688 482 348.363281 478.867188 339.226562 476.492188 C 337.25 482.96875 334.914062 489.042969 332.242188 494.609375 " fill-opacity="1" fill-rule="nonzero"/><path fill="#000000" d="M 255.441406 473.414062 C 263.226562 499.886719 276.441406 516.699219 289.601562 519.339844 L 289.601562 470.011719 C 277.902344 470.023438 267.652344 471.160156 259.128906 472.699219 C 257.871094 472.925781 256.648438 473.167969 255.441406 473.414062 " fill-opacity="1" fill-rule="nonzero"/><path fill="#000000" d="M 296.84375 470.144531 L 296.84375 519.339844 C 309.828125 516.734375 322.867188 500.328125 330.691406 474.460938 C 318.523438 471.839844 307.1875 470.539062 296.84375 470.144531 " fill-opacity="1" fill-rule="nonzero"/><path fill="#000000" d="M 296.84375 322.128906 L 296.84375 363.691406 C 306.617188 363.425781 317.304688 362.699219 328.832031 361.308594 C 320.898438 338.742188 308.847656 324.542969 296.84375 322.128906 " fill-opacity="1" fill-rule="nonzero"/><path fill="#000000" d="M 254.203125 346.863281 C 258.664062 337.570312 263.886719 330.144531 269.640625 324.757812 C 250.148438 329.691406 232.949219 340.457031 219.992188 355.085938 C 225.375 356.707031 235.046875 359.21875 248.453125 361.132812 C 250.148438 356.085938 252.066406 351.308594 254.203125 346.863281 " fill-opacity="1" fill-rule="nonzero"/><path fill="#000000" d="M 257.308594 362.238281 C 266.183594 363.1875 277.03125 363.875 289.601562 363.808594 L 289.601562 322.128906 C 277.433594 324.574219 265.21875 339.132812 257.292969 362.238281 C 257.296875 362.238281 257.300781 362.238281 257.308594 362.238281 " fill-opacity="1" fill-rule="nonzero"/><path fill="#000000" d="M 296.84375 462.828125 C 300.894531 462.972656 304.964844 463.242188 309.046875 463.648438 C 316.871094 464.425781 324.742188 465.691406 332.632812 467.417969 C 334.085938 461.605469 335.269531 455.371094 336.164062 448.785156 L 296.84375 448.785156 L 296.84375 462.828125 " fill-opacity="1" fill-rule="nonzero"/><path fill="#000000" d="M 339.871094 367.152344 C 342.179688 375.144531 343.929688 383.730469 345.125 392.683594 L 388.402344 392.683594 C 384.972656 381.070312 379.492188 370.335938 372.351562 360.921875 C 360.988281 363.59375 350.144531 365.628906 339.871094 367.152344 " fill-opacity="1" fill-rule="nonzero"/><path fill="#000000" d="M 332.242188 346.863281 C 334.234375 351.015625 336.039062 355.457031 337.648438 360.136719 C 347.011719 358.777344 356.871094 356.980469 367.183594 354.65625 C 353.933594 339.867188 336.324219 329.089844 316.398438 324.386719 C 322.3125 329.800781 327.675781 337.355469 332.242188 346.863281 " fill-opacity="1" fill-rule="nonzero"/><path fill="#000000" d="M 341.183594 469.476562 C 349.804688 471.730469 358.4375 474.5625 367.046875 477.929688 L 357.707031 452.71875 L 383.328125 462.269531 C 385.332031 457.933594 387.03125 453.429688 388.40625 448.785156 L 345.132812 448.785156 C 344.175781 455.960938 342.859375 462.894531 341.183594 469.476562 " fill-opacity="1" fill-rule="nonzero"/><g clip-path="url(#234c492b57)"><path fill="#000000" d="M 293.777344 305.339844 C 230.335938 305.339844 178.722656 357.105469 178.722656 420.734375 C 178.722656 484.367188 230.335938 536.132812 293.777344 536.132812 C 325.863281 536.132812 354.914062 522.890625 375.800781 501.574219 L 372.414062 492.425781 C 352.953125 513.882812 324.90625 527.367188 293.777344 527.367188 C 244.835938 527.367188 203.53125 494.015625 191.21875 448.785156 C 188.785156 439.84375 187.460938 430.445312 187.460938 420.734375 C 187.460938 411.027344 188.785156 401.628906 191.21875 392.683594 C 203.53125 347.457031 244.835938 314.101562 293.777344 314.101562 C 342.722656 314.101562 384.023438 347.457031 396.335938 392.683594 C 398.773438 401.628906 400.097656 411.027344 400.097656 420.734375 C 400.097656 430.445312 398.773438 439.84375 396.335938 448.785156 C 394.820312 454.367188 392.855469 459.757812 390.492188 464.9375 L 398.734375 468.007812 C 405.222656 453.574219 408.835938 437.570312 408.835938 420.734375 C 408.835938 357.105469 357.222656 305.339844 293.777344 305.339844 " fill-opacity="1" fill-rule="nonzero"/></g><g clip-path="url(#166b01bb67)"><path fill="#000000" d="M 416.148438 505.386719 L 398.328125 487.515625 L 412.34375 479.558594 L 367.992188 463.035156 L 384.46875 507.519531 L 392.398438 493.464844 L 410.214844 511.335938 L 416.148438 505.386719 " fill-opacity="1" fill-rule="nonzero"/></g></svg>