<svg xmlns="http://www.w3.org/2000/svg" xmlns:xlink="http://www.w3.org/1999/xlink" width="793" zoomAndPan="magnify" viewBox="0 0 595.5 842.249979" height="1122" preserveAspectRatio="xMidYMid meet" version="1.0"><defs><clipPath id="297d3d0ab4"><path d="M 178.4375 305.339844 L 409 305.339844 L 409 536 L 178.4375 536 Z M 178.4375 305.339844 " clip-rule="nonzero"/></clipPath><clipPath id="1f29cbba7a"><path d="M 368 462.507812 L 415.976562 462.507812 L 415.976562 511.363281 L 368 511.363281 Z M 368 462.507812 " clip-rule="nonzero"/></clipPath></defs><path fill="#ffffff" d="M 189.589844 444.929688 L 398.15625 444.929688 C 399.375 437.832031 401.363281 425.265625 401.363281 420.566406 C 401.363281 415.863281 399.375 403.300781 398.15625 396.203125 L 189.589844 396.203125 L 186.558594 420.566406 Z M 404.265625 452.222656 L 183.144531 452.222656 L 179.210938 420.566406 L 183.144531 388.910156 L 404.265625 388.910156 L 404.808594 391.910156 C 404.964844 392.78125 408.65625 413.320312 408.65625 420.566406 C 408.65625 427.8125 404.964844 448.351562 404.808594 449.222656 L 404.265625 452.222656 " fill-opacity="1" fill-rule="nonzero"/><path fill="#ffffff" d="M 272.648438 406.496094 L 264.492188 437.242188 L 256.5625 437.242188 L 252.261719 420.28125 L 248.199219 437.242188 L 239.933594 437.242188 L 231.765625 406.496094 L 240.644531 406.496094 L 244.945312 424.191406 L 249.140625 406.496094 L 256.550781 406.496094 L 261.117188 424.226562 L 265.425781 406.496094 L 272.648438 406.496094 " fill-opacity="1" fill-rule="nonzero"/><path fill="#ffffff" d="M 314.160156 406.496094 L 306.003906 437.242188 L 298.078125 437.242188 L 293.773438 420.28125 L 289.714844 437.242188 L 281.449219 437.242188 L 273.277344 406.496094 L 282.160156 406.496094 L 286.460938 424.191406 L 290.65625 406.496094 L 298.066406 406.496094 L 302.628906 424.226562 L 306.9375 406.496094 L 314.160156 406.496094 " fill-opacity="1" fill-rule="nonzero"/><path fill="#ffffff" d="M 355.675781 406.496094 L 347.519531 437.242188 L 339.589844 437.242188 L 335.289062 420.28125 L 331.226562 437.242188 L 322.960938 437.242188 L 314.792969 406.496094 L 323.671875 406.496094 L 327.972656 424.191406 L 332.167969 406.496094 L 339.578125 406.496094 L 344.140625 424.226562 L 348.449219 406.496094 L 355.675781 406.496094 " fill-opacity="1" fill-rule="nonzero"/><path fill="#ffffff" d="M 214.53125 479.636719 C 219.277344 477.082031 229.675781 472.097656 244.859375 468.140625 C 243.308594 461.898438 242.085938 455.339844 241.179688 448.574219 L 198.953125 448.574219 C 202.304688 459.902344 207.621094 470.394531 214.53125 479.636719 " fill-opacity="1" fill-rule="nonzero"/><path fill="#ffffff" d="M 296.789062 370.863281 L 296.789062 392.554688 L 336.160156 392.554688 C 334.964844 383.78125 333.246094 375.636719 331.085938 368.257812 C 318.703125 369.792969 307.234375 370.585938 296.789062 370.863281 " fill-opacity="1" fill-rule="nonzero"/><path fill="#ffffff" d="M 287.925781 370.984375 C 275.574219 370.984375 264.886719 370.28125 256.078125 369.332031 C 255.699219 369.289062 255.335938 369.246094 254.960938 369.203125 C 252.925781 376.332031 251.300781 384.152344 250.15625 392.554688 L 289.535156 392.554688 L 289.535156 370.980469 C 288.996094 370.980469 288.457031 370.984375 287.925781 370.984375 " fill-opacity="1" fill-rule="nonzero"/><path fill="#ffffff" d="M 214.855469 361.066406 C 207.789062 370.410156 202.359375 381.054688 198.953125 392.554688 L 241.175781 392.554688 C 242.324219 383.988281 243.988281 375.765625 246.160156 368.074219 C 230.128906 365.726562 219.488281 362.605469 214.855469 361.066406 " fill-opacity="1" fill-rule="nonzero"/><path fill="#ffffff" d="M 253.4375 466.148438 C 254.71875 465.882812 256.019531 465.628906 257.351562 465.382812 C 267.847656 463.46875 278.617188 462.496094 289.535156 462.472656 L 289.535156 448.574219 L 250.160156 448.574219 C 251.003906 454.761719 252.097656 460.640625 253.4375 466.148438 " fill-opacity="1" fill-rule="nonzero"/><path fill="#ffffff" d="M 254.085938 494.332031 C 251.261719 488.464844 248.816406 482.027344 246.769531 475.152344 C 233.511719 478.613281 224.035156 482.914062 219.1875 485.398438 C 232.234375 500.378906 249.707031 511.394531 269.546875 516.402344 C 263.785156 511.023438 258.554688 503.605469 254.085938 494.332031 " fill-opacity="1" fill-rule="nonzero"/><path fill="#ffffff" d="M 332.238281 494.332031 C 327.667969 503.824219 322.296875 511.367188 316.371094 516.773438 C 336.664062 511.996094 354.5625 500.949219 367.902344 485.792969 C 357.964844 481.738281 348.386719 478.613281 339.234375 476.238281 C 337.253906 482.707031 334.914062 488.773438 332.238281 494.332031 " fill-opacity="1" fill-rule="nonzero"/><path fill="#ffffff" d="M 255.324219 473.167969 C 263.125 499.597656 276.355469 516.386719 289.535156 519.027344 L 289.535156 469.769531 C 277.816406 469.78125 267.554688 470.917969 259.019531 472.453125 C 257.757812 472.679688 256.535156 472.921875 255.324219 473.167969 " fill-opacity="1" fill-rule="nonzero"/><path fill="#ffffff" d="M 296.789062 469.902344 L 296.789062 519.027344 C 309.792969 516.421875 322.851562 500.042969 330.6875 474.214844 C 318.5 471.59375 307.148438 470.296875 296.789062 469.902344 " fill-opacity="1" fill-rule="nonzero"/><path fill="#ffffff" d="M 296.789062 322.105469 L 296.789062 363.605469 C 306.578125 363.339844 317.28125 362.617188 328.824219 361.226562 C 320.878906 338.691406 308.8125 324.511719 296.789062 322.105469 " fill-opacity="1" fill-rule="nonzero"/><path fill="#ffffff" d="M 254.085938 346.800781 C 258.554688 337.523438 263.785156 330.109375 269.546875 324.730469 C 250.023438 329.65625 232.796875 340.40625 219.824219 355.015625 C 225.214844 356.632812 234.898438 359.140625 248.328125 361.050781 C 250.023438 356.011719 251.945312 351.242188 254.085938 346.800781 " fill-opacity="1" fill-rule="nonzero"/><path fill="#ffffff" d="M 257.195312 362.15625 C 266.082031 363.101562 276.945312 363.789062 289.535156 363.722656 L 289.535156 322.105469 C 277.351562 324.546875 265.117188 339.082031 257.179688 362.152344 C 257.183594 362.15625 257.1875 362.15625 257.195312 362.15625 " fill-opacity="1" fill-rule="nonzero"/><path fill="#ffffff" d="M 296.789062 462.597656 C 300.847656 462.742188 304.921875 463.011719 309.007812 463.417969 C 316.84375 464.191406 324.726562 465.453125 332.632812 467.179688 C 334.085938 461.375 335.273438 455.148438 336.167969 448.574219 L 296.789062 448.574219 L 296.789062 462.597656 " fill-opacity="1" fill-rule="nonzero"/><path fill="#ffffff" d="M 339.878906 367.0625 C 342.191406 375.042969 343.945312 383.613281 345.144531 392.554688 L 388.484375 392.554688 C 385.050781 380.960938 379.558594 370.238281 372.40625 360.839844 C 361.027344 363.507812 350.167969 365.542969 339.878906 367.0625 " fill-opacity="1" fill-rule="nonzero"/><path fill="#ffffff" d="M 332.238281 346.800781 C 334.238281 350.949219 336.042969 355.386719 337.65625 360.058594 C 347.03125 358.699219 356.90625 356.90625 367.230469 354.582031 C 353.964844 339.816406 336.328125 329.054688 316.371094 324.359375 C 322.296875 329.765625 327.667969 337.308594 332.238281 346.800781 " fill-opacity="1" fill-rule="nonzero"/><path fill="#ffffff" d="M 341.191406 469.234375 C 349.828125 471.488281 358.472656 474.3125 367.09375 477.675781 L 357.742188 452.503906 L 383.402344 462.035156 C 385.410156 457.707031 387.113281 453.214844 388.484375 448.574219 L 345.152344 448.574219 C 344.1875 455.738281 342.871094 462.660156 341.191406 469.234375 " fill-opacity="1" fill-rule="nonzero"/><g clip-path="url(#297d3d0ab4)"><path fill="#ffffff" d="M 293.71875 305.339844 C 230.183594 305.339844 178.492188 357.027344 178.492188 420.566406 C 178.492188 484.101562 230.183594 535.792969 293.71875 535.792969 C 325.851562 535.792969 354.945312 522.570312 375.863281 501.285156 L 372.472656 492.152344 C 352.980469 513.574219 324.894531 527.042969 293.71875 527.042969 C 244.703125 527.042969 203.339844 493.738281 191.007812 448.574219 C 188.570312 439.644531 187.242188 430.257812 187.242188 420.566406 C 187.242188 410.871094 188.570312 401.488281 191.007812 392.554688 C 203.339844 347.394531 244.703125 314.089844 293.71875 314.089844 C 342.734375 314.089844 384.097656 347.394531 396.429688 392.554688 C 398.867188 401.488281 400.195312 410.871094 400.195312 420.566406 C 400.195312 430.257812 398.867188 439.644531 396.429688 448.574219 C 394.910156 454.148438 392.941406 459.53125 390.578125 464.703125 L 398.828125 467.769531 C 405.328125 453.355469 408.945312 437.375 408.945312 420.566406 C 408.945312 357.027344 357.257812 305.339844 293.71875 305.339844 " fill-opacity="1" fill-rule="nonzero"/></g><g clip-path="url(#1f29cbba7a)"><path fill="#ffffff" d="M 416.269531 505.089844 L 398.425781 487.246094 L 412.457031 479.304688 L 368.042969 462.804688 L 384.542969 507.21875 L 392.484375 493.1875 L 410.328125 511.03125 L 416.269531 505.089844 " fill-opacity="1" fill-rule="nonzero"/></g></svg>